# xmcd CD database file
#
# Track frame offsets:
#	150
#	12543
#	24196
#	36523
#	48709
#	60385
#	72279
#	84827
#	94730
#	106319
#	117168
#	128050
#	139869
#	152897
#	166087
#	179268
#	191671
#	204018
#	217173
#	228855
#	241080
#	252116
#	264023
#	277800
#
# Disc length: 3845 seconds
#
# Revision: 0
# Processed by: cddbd v1.4PL0 Copyright (c) Steve Scherf et al.
# Submitted via: NeoAudio 9.9.9
#
DISCID=3b0f0318
DTITLE=Hank Williams - Legendary Country Singers
DYEAR=1900
DGENRE=Country
TTITLE0=Move It On Over
TTITLE1=Mansion On The Hill
TTITLE2=Lovesick Blues
TTITLE3=Lost Highway
TTITLE4=Dear John
TTITLE5=Long Gone Lonesome Blues
TTITLE6=I'm So Lonesome I Could Cry
TTITLE7=Honky Tonk Blues
TTITLE8=My Son Calls Another man Daddy
TTITLE9=I Can't Help It (If I'm Still in Love With You)
TTITLE10=Why Don't You Love Me
TTITLE11=You Win Again
TTITLE12=Jambalaya (On the Bayou)
TTITLE13=Mind Your Own Business
TTITLE14=Hey, Good Lookin'
TTITLE15=Honky Tonkin'
TTITLE16=Cold, Cold Heart
TTITLE17=Wedding Bells
TTITLE18=Kaw-Liga
TTITLE19=Your Cheatin' Heart
TTITLE20=I'll Never Get Out of This World Alive
TTITLE21=Take These Chains From My Heart
TTITLE22=Ramblin' Man
TTITLE23=The Log Train
EXTD=
EXTT0=
EXTT1=
EXTT2=
EXTT3=
EXTT4=
EXTT5=
EXTT6=
EXTT7=
EXTT8=
EXTT9=
EXTT10=
EXTT11=
EXTT12=
EXTT13=
EXTT14=
EXTT15=
EXTT16=
EXTT17=
EXTT18=
EXTT19=
EXTT20=
EXTT21=
EXTT22=
EXTT23=
PLAYORDER=
